<svg width="129" height="22" viewBox="0 0 129 22" fill="none" xmlns="http://www.w3.org/2000/svg">
<path d="M120.223 6.29102L122.587 10.7913L125.009 6.29102H128.671L124.942 12.7272L128.771 19.1634H125.126L122.587 14.7134L120.089 19.1634H116.402L120.223 12.7272L116.536 6.29102H120.223Z" fill="#900E63"/>
<path d="M109.233 19.4145C107.908 19.4145 106.769 19.1463 105.813 18.61C104.864 18.068 104.132 17.3026 103.618 16.3137C103.104 15.3192 102.847 14.1432 102.847 12.7855C102.847 11.4614 103.104 10.2993 103.618 9.29925C104.132 8.29918 104.855 7.51979 105.788 6.9611C106.727 6.4024 107.827 6.12305 109.09 6.12305C109.939 6.12305 110.73 6.25993 111.462 6.53369C112.199 6.80187 112.842 7.20692 113.389 7.74886C113.942 8.2908 114.373 8.97241 114.68 9.7937C114.987 10.6094 115.141 11.5648 115.141 12.6598V13.6403H104.271V11.4279H111.78C111.78 10.9139 111.669 10.4586 111.445 10.0619C111.222 9.6652 110.912 9.35512 110.515 9.13164C110.124 8.90258 109.668 8.78804 109.149 8.78804C108.607 8.78804 108.126 8.91375 107.707 9.16516C107.294 9.41099 106.97 9.74342 106.735 10.1624C106.501 10.5759 106.38 11.0368 106.375 11.5452V13.6487C106.375 14.2856 106.492 14.836 106.727 15.2997C106.967 15.7634 107.305 16.121 107.741 16.3724C108.177 16.6238 108.693 16.7495 109.291 16.7495C109.688 16.7495 110.051 16.6936 110.381 16.5819C110.71 16.4702 110.993 16.3025 111.227 16.0791C111.462 15.8556 111.641 15.5818 111.764 15.2578L115.065 15.4757C114.898 16.269 114.554 16.9618 114.035 17.554C113.521 18.1407 112.856 18.5988 112.04 18.9284C111.23 19.2525 110.294 19.4145 109.233 19.4145Z" fill="#900E63"/>
<path d="M101.954 6.29102L97.4536 19.1634H93.431L88.9307 6.29102H92.7019L95.3753 15.5012H95.5093L98.1743 6.29102H101.954Z" fill="#900E63"/>
<path d="M87.093 2V19.1632H83.5229V2H87.093Z" fill="#900E63"/>
<path d="M74.8659 19.4145C73.5642 19.4145 72.4384 19.1379 71.4886 18.5848C70.5444 18.0261 69.8153 17.2495 69.3013 16.2551C68.7873 15.255 68.5303 14.0957 68.5303 12.7772C68.5303 11.4475 68.7873 10.2854 69.3013 9.29087C69.8153 8.2908 70.5444 7.51421 71.4886 6.9611C72.4384 6.4024 73.5642 6.12305 74.8659 6.12305C76.1677 6.12305 77.2907 6.4024 78.2349 6.9611C79.1847 7.51421 79.9166 8.2908 80.4306 9.29087C80.9446 10.2854 81.2016 11.4475 81.2016 12.7772C81.2016 14.0957 80.9446 15.255 80.4306 16.2551C79.9166 17.2495 79.1847 18.0261 78.2349 18.5848C77.2907 19.1379 76.1677 19.4145 74.8659 19.4145ZM74.8827 16.6489C75.4749 16.6489 75.9694 16.4813 76.366 16.1461C76.7627 15.8053 77.0616 15.3416 77.2627 14.755C77.4695 14.1683 77.5728 13.5007 77.5728 12.752C77.5728 12.0034 77.4695 11.3357 77.2627 10.7491C77.0616 10.1624 76.7627 9.69872 76.366 9.35792C75.9694 9.01711 75.4749 8.84671 74.8827 8.84671C74.2849 8.84671 73.782 9.01711 73.3742 9.35792C72.9719 9.69872 72.6674 10.1624 72.4607 10.7491C72.2596 11.3357 72.159 12.0034 72.159 12.752C72.159 13.5007 72.2596 14.1683 72.4607 14.755C72.6674 15.3416 72.9719 15.8053 73.3742 16.1461C73.782 16.4813 74.2849 16.6489 74.8827 16.6489Z" fill="#900E63"/>
<path d="M49.911 19.1632L45 2H48.964L51.805 13.9254H51.9474L55.0817 2H58.4758L61.6018 13.9506H61.7526L64.5936 2H68.5576L63.6466 19.1632H60.11L56.8416 7.94177H56.7075L53.4475 19.1632H49.911Z" fill="#900E63"/>
<g clip-path="url(#clip0_2295_45)">
<path d="M28.3987 9.19501L27.7273 3.04739L23.1616 0.0161075L33.0002 0L28.3987 9.19501Z" fill="#900E63"/>
<path d="M13.4629 14.8104L10.1553 21.5217L0 0H6.0817L13.4629 14.8104Z" fill="#900E63"/>
<path d="M25.4386 14.8362L22.1435 21.5217L11.9883 0H18.07L25.4386 14.8362Z" fill="#900E63"/>
</g>
<defs>
<clipPath id="clip0_2295_45">
<rect width="33" height="21.5217" fill="white"/>
</clipPath>
</defs>
</svg>
