<svg width="259" height="58" viewBox="0 0 259 58" fill="none" xmlns="http://www.w3.org/2000/svg">
<path d="M96.892 46L86.9034 11.0909H94.9659L100.744 35.3466H101.034L107.409 11.0909H114.312L120.67 35.3977H120.977L126.756 11.0909H134.818L124.83 46H117.636L110.989 23.1761H110.716L104.085 46H96.892ZM147.649 46.5114C145.001 46.5114 142.712 45.9489 140.78 44.8239C138.859 43.6875 137.376 42.108 136.331 40.0852C135.286 38.0511 134.763 35.6932 134.763 33.0114C134.763 30.3068 135.286 27.9432 136.331 25.9205C137.376 23.8864 138.859 22.3068 140.78 21.1818C142.712 20.0455 145.001 19.4773 147.649 19.4773C150.297 19.4773 152.581 20.0455 154.501 21.1818C156.433 22.3068 157.922 23.8864 158.967 25.9205C160.013 27.9432 160.536 30.3068 160.536 33.0114C160.536 35.6932 160.013 38.0511 158.967 40.0852C157.922 42.108 156.433 43.6875 154.501 44.8239C152.581 45.9489 150.297 46.5114 147.649 46.5114ZM147.683 40.8864C148.888 40.8864 149.893 40.5455 150.7 39.8636C151.507 39.1705 152.115 38.2273 152.524 37.0341C152.945 35.8409 153.155 34.483 153.155 32.9602C153.155 31.4375 152.945 30.0795 152.524 28.8864C152.115 27.6932 151.507 26.75 150.7 26.0568C149.893 25.3636 148.888 25.017 147.683 25.017C146.467 25.017 145.445 25.3636 144.615 26.0568C143.797 26.75 143.178 27.6932 142.757 28.8864C142.348 30.0795 142.143 31.4375 142.143 32.9602C142.143 34.483 142.348 35.8409 142.757 37.0341C143.178 38.2273 143.797 39.1705 144.615 39.8636C145.445 40.5455 146.467 40.8864 147.683 40.8864ZM172.518 11.0909V46H165.257V11.0909H172.518ZM202.744 19.8182L193.591 46H185.409L176.256 19.8182H183.926L189.364 38.5511H189.636L195.057 19.8182H202.744ZM217.548 46.5114C214.855 46.5114 212.537 45.9659 210.594 44.875C208.662 43.7727 207.173 42.2159 206.128 40.2045C205.082 38.1818 204.56 35.7898 204.56 33.0284C204.56 30.3352 205.082 27.9716 206.128 25.9375C207.173 23.9034 208.645 22.3182 210.543 21.1818C212.452 20.0455 214.69 19.4773 217.259 19.4773C218.986 19.4773 220.594 19.7557 222.082 20.3125C223.582 20.858 224.889 21.6818 226.003 22.7841C227.128 23.8864 228.003 25.2727 228.628 26.9432C229.253 28.6023 229.565 30.5455 229.565 32.7727V34.767H207.457V30.267H222.73C222.73 29.2216 222.503 28.2955 222.048 27.4886C221.594 26.6818 220.963 26.0511 220.156 25.5966C219.361 25.1307 218.435 24.8977 217.378 24.8977C216.276 24.8977 215.298 25.1534 214.446 25.6648C213.605 26.1648 212.946 26.8409 212.469 27.6932C211.991 28.5341 211.747 29.4716 211.736 30.5057V34.7841C211.736 36.0795 211.974 37.1989 212.452 38.142C212.94 39.0852 213.628 39.8125 214.514 40.3239C215.401 40.8352 216.452 41.0909 217.668 41.0909C218.474 41.0909 219.213 40.9773 219.884 40.75C220.554 40.5227 221.128 40.1818 221.605 39.7273C222.082 39.2727 222.446 38.7159 222.696 38.0568L229.412 38.5C229.071 40.1136 228.372 41.5227 227.315 42.7273C226.27 43.9205 224.918 44.8523 223.259 45.5227C221.611 46.1818 219.707 46.5114 217.548 46.5114ZM239.903 19.8182L244.71 28.9716L249.636 19.8182H257.085L249.5 32.9091L257.29 46H249.875L244.71 36.9489L239.631 46H232.131L239.903 32.9091L232.403 19.8182H239.903Z" fill="white"/>
<g clip-path="url(#clip0_2295_9)">
<path d="M59.379 26.2259L57.9752 13.3718L48.4287 7.03368L69.0002 7L59.379 26.2259Z" fill="white"/>
<path d="M28.1497 37.9671L21.2337 52L0 7H12.7163L28.1497 37.9671Z" fill="white"/>
<path d="M53.1893 38.0212L46.2997 52L25.0659 7H37.7822L53.1893 38.0212Z" fill="white"/>
</g>
<defs>
<clipPath id="clip0_2295_9">
<rect width="69" height="45" fill="white" transform="translate(0 7)"/>
</clipPath>
</defs>
</svg>
