<svg width="21" height="30" viewBox="0 0 21 30" fill="none" xmlns="http://www.w3.org/2000/svg">
<path d="M10.5 1C5.25521 1 1 5.05003 1 10.0382C1 15.7778 7.33333 24.8734 9.65885 28.015C9.75538 28.1476 9.8819 28.2555 10.0281 28.3299C10.1743 28.4043 10.336 28.4431 10.5 28.4431C10.664 28.4431 10.8257 28.4043 10.9719 28.3299C11.1181 28.2555 11.2446 28.1476 11.3411 28.015C13.6667 24.8747 20 15.7824 20 10.0382C20 5.05003 15.7448 1 10.5 1Z" stroke="#7D6542" stroke-width="1.5" stroke-linecap="round" stroke-linejoin="round"/>
<path d="M10.5003 13.6668C12.2492 13.6668 13.667 12.2491 13.667 10.5002C13.667 8.75126 12.2492 7.3335 10.5003 7.3335C8.75141 7.3335 7.33365 8.75126 7.33365 10.5002C7.33365 12.2491 8.75141 13.6668 10.5003 13.6668Z" stroke="#7D6542" stroke-width="1.5" stroke-linecap="round" stroke-linejoin="round"/>
</svg>
