<svg width="96" height="71" viewBox="0 0 96 71" fill="none" xmlns="http://www.w3.org/2000/svg">
<path d="M35.8399 29.1126C43.2647 16.5966 38.7131 0 38.7131 0C38.7131 0 38.2387 11.0674 19.5667 22.6117C0.894745 34.1649 8.55684 51 8.55684 51C13.3105 44.508 13.082 44.6228 46.7706 44.6228L62.209 29.1037H35.8399V29.1126ZM26.974 34.4034C21.3065 38.7314 14.5319 40.6569 8.94345 48.2C8.94345 48.2 9.25978 39.703 21.5437 30.7201C28.7401 25.4558 36.8591 15.3247 38.7746 7.30464C38.7746 7.30464 41.1998 23.5303 26.9652 34.4122L26.974 34.4034ZM66.7518 29.1126L51.3222 44.6316C54.5294 44.6316 58.0265 44.6316 58.255 44.6316L73.6934 29.1126H66.7518ZM74.8884 30.4375L71.4176 33.9264L82.0672 44.6316C82.3045 44.6316 85.8016 44.6316 89 44.6316L74.8796 30.4375H74.8884ZM68.1841 44.4373H72.8938V39.703H68.1841V44.4373Z" fill="#E8BB79"/>
<path d="M2.99 56.874V62.334C2.99 62.88 3.12433 63.3003 3.393 63.595C3.66167 63.8897 4.056 64.037 4.576 64.037C5.096 64.037 5.49467 63.8897 5.772 63.595C6.04933 63.3003 6.188 62.88 6.188 62.334V56.874H8.411V62.321C8.411 63.1357 8.23767 63.8247 7.891 64.388C7.54433 64.9513 7.07633 65.376 6.487 65.662C5.90633 65.948 5.25633 66.091 4.537 66.091C3.81767 66.091 3.172 65.9523 2.6 65.675C2.03667 65.389 1.59033 64.9643 1.261 64.401C0.931667 63.829 0.767 63.1357 0.767 62.321V56.874H2.99ZM14.626 66L12.728 62.555H12.195V66H9.97202V56.874H13.703C14.4223 56.874 15.0333 56.9997 15.536 57.251C16.0473 57.5023 16.4287 57.849 16.68 58.291C16.9313 58.7243 17.057 59.2097 17.057 59.747C17.057 60.3537 16.8837 60.8953 16.537 61.372C16.199 61.8487 15.6963 62.1867 15.029 62.386L17.135 66H14.626ZM12.195 60.982H13.573C13.9803 60.982 14.2837 60.8823 14.483 60.683C14.691 60.4837 14.795 60.202 14.795 59.838C14.795 59.4913 14.691 59.2183 14.483 59.019C14.2837 58.8197 13.9803 58.72 13.573 58.72H12.195V60.982ZM23.9775 61.32C24.5062 61.4327 24.9308 61.697 25.2515 62.113C25.5722 62.5203 25.7325 62.9883 25.7325 63.517C25.7325 64.2797 25.4638 64.8863 24.9265 65.337C24.3978 65.779 23.6568 66 22.7035 66H18.4525V56.874H22.5605C23.4878 56.874 24.2115 57.0863 24.7315 57.511C25.2602 57.9357 25.5245 58.512 25.5245 59.24C25.5245 59.7773 25.3815 60.2237 25.0955 60.579C24.8182 60.9343 24.4455 61.1813 23.9775 61.32ZM20.6755 60.566H22.1315C22.4955 60.566 22.7728 60.488 22.9635 60.332C23.1628 60.1673 23.2625 59.929 23.2625 59.617C23.2625 59.305 23.1628 59.0667 22.9635 58.902C22.7728 58.7373 22.4955 58.655 22.1315 58.655H20.6755V60.566ZM22.3135 64.206C22.6862 64.206 22.9722 64.1237 23.1715 63.959C23.3795 63.7857 23.4835 63.5387 23.4835 63.218C23.4835 62.8973 23.3752 62.646 23.1585 62.464C22.9505 62.282 22.6602 62.191 22.2875 62.191H20.6755V64.206H22.3135ZM32.7028 64.388H29.2968L28.7508 66H26.4238L29.7258 56.874H32.2998L35.6018 66H33.2488L32.7028 64.388ZM32.1308 62.672L30.9998 59.331L29.8818 62.672H32.1308ZM44.7708 66H42.5478L38.8298 60.371V66H36.6068V56.874H38.8298L42.5478 62.529V56.874H44.7708V66ZM54.6621 61.32C55.1907 61.4327 55.6154 61.697 55.9361 62.113C56.2567 62.5203 56.4171 62.9883 56.4171 63.517C56.4171 64.2797 56.1484 64.8863 55.6111 65.337C55.0824 65.779 54.3414 66 53.3881 66H49.1371V56.874H53.2451C54.1724 56.874 54.8961 57.0863 55.4161 57.511C55.9447 57.9357 56.2091 58.512 56.2091 59.24C56.2091 59.7773 56.0661 60.2237 55.7801 60.579C55.5027 60.9343 55.1301 61.1813 54.6621 61.32ZM51.3601 60.566H52.8161C53.1801 60.566 53.4574 60.488 53.6481 60.332C53.8474 60.1673 53.9471 59.929 53.9471 59.617C53.9471 59.305 53.8474 59.0667 53.6481 58.902C53.4574 58.7373 53.1801 58.655 52.8161 58.655H51.3601V60.566ZM52.9981 64.206C53.3707 64.206 53.6567 64.1237 53.8561 63.959C54.0641 63.7857 54.1681 63.5387 54.1681 63.218C54.1681 62.8973 54.0597 62.646 53.8431 62.464C53.6351 62.282 53.3447 62.191 52.9721 62.191H51.3601V64.206H52.9981ZM59.9294 64.284H62.8414V66H57.7064V56.874H59.9294V64.284ZM68.2177 66.091C67.3597 66.091 66.571 65.8917 65.8517 65.493C65.141 65.0943 64.5734 64.5397 64.1487 63.829C63.7327 63.1097 63.5247 62.3037 63.5247 61.411C63.5247 60.5183 63.7327 59.7167 64.1487 59.006C64.5734 58.2953 65.141 57.7407 65.8517 57.342C66.571 56.9433 67.3597 56.744 68.2177 56.744C69.0757 56.744 69.86 56.9433 70.5707 57.342C71.29 57.7407 71.8534 58.2953 72.2607 59.006C72.6767 59.7167 72.8847 60.5183 72.8847 61.411C72.8847 62.3037 72.6767 63.1097 72.2607 63.829C71.8447 64.5397 71.2814 65.0943 70.5707 65.493C69.86 65.8917 69.0757 66.091 68.2177 66.091ZM68.2177 64.063C68.9457 64.063 69.5264 63.8203 69.9597 63.335C70.4017 62.8497 70.6227 62.2083 70.6227 61.411C70.6227 60.605 70.4017 59.9637 69.9597 59.487C69.5264 59.0017 68.9457 58.759 68.2177 58.759C67.481 58.759 66.8917 58.9973 66.4497 59.474C66.0164 59.9507 65.7997 60.5963 65.7997 61.411C65.7997 62.217 66.0164 62.8627 66.4497 63.348C66.8917 63.8247 67.481 64.063 68.2177 64.063ZM78.4374 66.091C77.5794 66.091 76.7908 65.8917 76.0714 65.493C75.3608 65.0943 74.7931 64.5397 74.3684 63.829C73.9524 63.1097 73.7444 62.3037 73.7444 61.411C73.7444 60.5183 73.9524 59.7167 74.3684 59.006C74.7931 58.2953 75.3608 57.7407 76.0714 57.342C76.7908 56.9433 77.5794 56.744 78.4374 56.744C79.2954 56.744 80.0798 56.9433 80.7904 57.342C81.5098 57.7407 82.0731 58.2953 82.4804 59.006C82.8964 59.7167 83.1044 60.5183 83.1044 61.411C83.1044 62.3037 82.8964 63.1097 82.4804 63.829C82.0644 64.5397 81.5011 65.0943 80.7904 65.493C80.0798 65.8917 79.2954 66.091 78.4374 66.091ZM78.4374 64.063C79.1654 64.063 79.7461 63.8203 80.1794 63.335C80.6214 62.8497 80.8424 62.2083 80.8424 61.411C80.8424 60.605 80.6214 59.9637 80.1794 59.487C79.7461 59.0017 79.1654 58.759 78.4374 58.759C77.7008 58.759 77.1114 58.9973 76.6694 59.474C76.2361 59.9507 76.0194 60.5963 76.0194 61.411C76.0194 62.217 76.2361 62.8627 76.6694 63.348C77.1114 63.8247 77.7008 64.063 78.4374 64.063ZM94.6762 56.874V66H92.4532V60.527L90.4122 66H88.6182L86.5642 60.514V66H84.3412V56.874H86.9672L89.5282 63.192L92.0632 56.874H94.6762Z" fill="#E8BB79"/>
</svg>
