<svg width="20" height="20" viewBox="0 0 20 20" fill="none" xmlns="http://www.w3.org/2000/svg">
<path fill-rule="evenodd" clip-rule="evenodd" d="M17.9549 4.25916C18.1893 4.49357 18.3209 4.81146 18.3209 5.14291C18.3209 5.47437 18.1893 5.79225 17.9549 6.02666L8.58577 15.3958C8.46196 15.5197 8.31496 15.6179 8.15317 15.6849C7.99139 15.752 7.81798 15.7865 7.64286 15.7865C7.46774 15.7865 7.29433 15.752 7.13254 15.6849C6.97076 15.6179 6.82376 15.5197 6.69994 15.3958L2.04494 10.7417C1.92555 10.6264 1.83032 10.4884 1.76481 10.3359C1.6993 10.1834 1.66482 10.0194 1.66338 9.85341C1.66194 9.68744 1.69356 9.52284 1.75641 9.36922C1.81926 9.2156 1.91208 9.07603 2.02945 8.95867C2.14681 8.8413 2.28638 8.74848 2.44 8.68563C2.59362 8.62278 2.75822 8.59116 2.92419 8.5926C3.09017 8.59404 3.25419 8.62852 3.4067 8.69403C3.5592 8.75955 3.69713 8.85477 3.81244 8.97416L7.64244 12.8042L16.1866 4.25916C16.3027 4.143 16.4405 4.05086 16.5922 3.98799C16.7439 3.92512 16.9066 3.89276 17.0708 3.89276C17.235 3.89276 17.3976 3.92512 17.5493 3.98799C17.701 4.05086 17.8389 4.143 17.9549 4.25916Z" fill="black"/>
</svg>
